<svg xmlns="http://www.w3.org/2000/svg" width="800" height="800" style="background-color:#0C0C0C">
<polygon points="
400.1599057919365,44.633549226812136
409.233629799498,44.633549226812136
409.233629799498,41.86680715237537
418.1065418823019,41.86680715237537
418.1065418823019,45.74917103102052
427.00176640119,45.74917103102052
427.00176640119,47.19947937649141
436.20936502525643,47.19947937649141
436.20936502525643,45.16904769283212
444.9484024915554,45.16904769283212
444.9484024915554,47.995289596826694
454.69893706033656,47.995289596826694
454.69893706033656,43.718739347361236
463.690848802256,43.718739347361236
463.690848802256,45.258297437168835
471.7456382286405,45.258297437168835
471.7456382286405,51.3421550094518
480.30617620626606,51.3421550094518
480.30617620626606,54.30970900864611
490.37652235892034,54.30970900864611
490.37652235892034,51.2975301372835
498.19331246707367,51.2975301372835
498.19331246707367,57.10620099786172
507.78765998326566,57.10620099786172
507.78765998326566,56.70457714834674
515.4631379962193,56.70457714834674
515.4631379962193,62.409123307198854
523.4733025504354,62.409123307198854
523.4733025504354,66.77492330100097
531.9297158263348,66.77492330100097
531.9297158263348,69.85403948061611
540.1109423905295,69.85403948061611
540.1109423905295,73.61740370014564
549.1921038767857,73.61740370014564
549.1921038767857,75.40239858687909
558.5558895534414,75.40239858687909
558.5558895534414,76.86758188973937
565.3983699525861,76.86758188973937
565.3983699525861,83.43487557717935
573.2077225820447,83.43487557717935
573.2077225820447,88.00892497443368
579.8940159286002,88.00892497443368
579.8940159286002,94.45721900275805
587.4951191546065,94.45721900275805
587.4951191546065,99.23208032476992
598.2943382193437,99.23208032476992
598.2943382193437,99.17258049521212
605.9549412749078,99.17258049521212
605.9549412749078,104.14081626328675
611.3322383711921,104.14081626328675
611.3322383711921,112.23279308314483
617.7210325699588,112.23279308314483
617.7210325699588,118.75546189841646
625.9543214850166,118.75546189841646
625.9543214850166,122.92044996746102
631.6216802503951,122.92044996746102
631.6216802503951,130.21661656698382
640.7325916514301,130.21661656698382
640.7325916514301,133.57091945830365
648.3783197496049,133.57091945830365
648.3783197496049,138.73996715113577
652.446620595618,138.73996715113577
652.446620595618,147.5756918404661
658.8874771452478,147.5756918404661
658.8874771452478,153.93473612445382
664.2424618054479,153.93473612445382
664.2424618054479,161.29040255353436
668.4297623105767,161.29040255353436
668.4297623105767,169.57575381945523
675.1829929653848,169.57575381945523
675.1829929653848,175.64473643434877
683.7584059003998,175.64473643434877
683.7584059003998,180.3898478415817
689.3067650066628,180.3898478415817
689.3067650066628,187.5967646967678
690.400074374787,187.5967646967678
690.400074374787,197.90511016765316
697.0789302426477,197.90511016765316
697.0789302426477,204.24927949425145
702.5231646471846,204.24927949425145
702.5231646471846,211.4785087855217
708.1830859338684,211.4785087855217
708.1830859338684,218.63336328984474
711.0539527100314,218.63336328984474
711.0539527100314,227.39471319222784
719.1459295298894,227.39471319222784
719.1459295298894,233.35213362670055
720.8416746722861,233.35213362670055
720.8416746722861,242.67873190988254
721.6895472434844,242.67873190988254
721.6895472434844,252.2507669899904
730.4211472310886,252.2507669899904
730.4211472310886,258.2825622114103
729.848461371595,258.2825622114103
729.848461371595,268.315720970591
731.2318324088134,268.315720970591
731.2318324088134,277.39688245684715
734.0729492701973,277.39688245684715
734.0729492701973,285.8904831262202
739.3684341008397,285.8904831262202
739.3684341008397,293.6180234900369
739.9634323964176,293.6180234900369
739.9634323964176,302.8181846354086
745.2961046205337,302.8181846354086
745.2961046205337,310.70934953050914
749.2751557222102,310.70934953050914
749.2751557222102,319.06907558337724
747.8471598128235,319.06907558337724
747.8471598128235,328.6336731847904
748.6578449905483,328.6336731847904
748.6578449905483,337.6404598840993
752.6220211348352,337.6404598840993
752.6220211348352,346.11918559608296
753.0162075056555,346.11918559608296
753.0162075056555,355.1854721249496
757.0621959155847,355.1854721249496
757.0621959155847,363.8501348043013
756.9729461712479,363.8501348043013
756.9729461712479,372.9833586414206
753.2690817812761,372.9833586414206
753.2690817812761,382.2578945737395
753.9979546933589,382.2578945737395
753.9979546933589,391.21261892218536
759.9925625213052,391.21261892218536
759.9925625213052,400.2045306641049
757.2555703616474,400.2045306641049
757.2555703616474,409.2633797142769
758.0662555393722,409.2633797142769
758.0662555393722,418.38172859400663
757.0845083516688,418.38172859400663
757.0845083516688,427.4257026867892
758.1629427624035,427.4257026867892
758.1629427624035,436.6704887043292
751.6848988193003,436.6704887043292
751.6848988193003,445.03765223589204
748.7099073414113,445.03765223589204
748.7099073414113,453.68000247915955
753.6930180668753,453.68000247915955
753.6930180668753,463.6759738448666
750.3982150051132,463.6759738448666
750.3982150051132,472.30344913074464
745.0060429514394,472.30344913074464
745.0060429514394,480.35823855712914
742.6781121199913,480.35823855712914
742.6781121199913,489.045213672565
743.4516099042424,489.045213672565
743.4516099042424,498.6098112739781
737.3900647680437,498.6098112739781
737.3900647680437,506.20347702128976
736.7578790789922,506.20347702128976
736.7578790789922,515.4780129536088
731.6929560878862,515.4780129536088
731.6929560878862,523.2278657535096
732.3995165638848,523.2278657535096
732.3995165638848,533.186649725743
724.5976014131209,533.186649725743
724.5976014131209,539.7167560197094
725.103349964362,539.7167560197094
725.103349964362,549.8168520871425
721.8159843812947,549.8168520871425
721.8159843812947,558.3253277139049
713.6868201679631,558.3253277139049
713.6868201679631,564.3348104992408
708.8450215376987,564.3348104992408
708.8450215376987,571.9210387678577
704.0701602156869,571.9210387678577
704.0701602156869,579.5147045151693
702.0471660107223,579.5147045151693
702.0471660107223,588.8189903622672
697.9044903777619,588.8189903622672
697.9044903777619,596.91840466082
691.5082587003005,596.91840466082
691.5082587003005,603.5005733056494
688.9125786358425,603.5005733056494
688.9125786358425,612.7899841953578
681.0660386129102,612.7899841953578
681.0660386129102,618.2193436425052
673.8219343642505,618.2193436425052
673.8219343642505,623.961077194831
672.1856890514116,623.961077194831
672.1856890514116,634.3958598035266
665.8192072887291,634.3958598035266
665.8192072887291,640.925966097493
660.1518485233505,640.925966097493
660.1518485233505,648.1031330379001
652.3127459791131,648.1031330379001
652.3127459791131,653.1606185503115
644.5182683070439,653.1606185503115
644.5182683070439,658.1139793609966
639.5202826241904,658.1139793609966
639.5202826241904,666.0497691282656
633.5033623601598,666.0497691282656
633.5033623601598,672.9889367504416
622.4363940624128,672.9889367504416
622.4363940624128,673.8144968855559
615.7724131519415,673.8144968855559
615.7724131519415,679.8314171495863
609.4431187827327,679.8314171495863
609.4431187827327,686.3689609222474
604.5864451950788,686.3689609222474
604.5864451950788,695.1526232607146
597.1935913725247,695.1526232607146
597.1935913725247,700.50017044222
589.7784251138864,700.50017044222
589.7784251138864,705.8477176237255
580.6823886702408,705.8477176237255
580.6823886702408,708.3913353373207
571.6012271839846,708.3913353373207
571.6012271839846,710.6969537326846
562.6911277077071,710.6969537326846
562.6911277077071,713.0843843936905
556.6667699649819,713.0843843936905
556.6667699649819,721.1540487774644
549.6606650345533,721.1540487774644
549.6606650345533,727.6246552418729
540.9811273978121,727.6246552418729
540.9811273978121,730.5624593262884
531.7958412098299,730.5624593262884
531.7958412098299,732.1392048095695
522.2386810871114,732.1392048095695
522.2386810871114,732.4143915212743
514.4293284576529,732.4143915212743
514.4293284576529,737.3677523319594
505.4225417583439,737.3677523319594
505.4225417583439,738.8403731135145
497.4793145123803,738.8403731135145
497.4793145123803,743.8309213176733
488.14527875050356,743.8309213176733
488.14527875050356,743.92017106201
480.5441755244972,743.92017106201
480.5441755244972,751.0527131302488
471.1803898478416,751.0527131302488
471.1803898478416,750.8370262481019
462.27772785025877,750.8370262481019
462.27772785025877,752.6517710496141
453.51637794787564,752.6517710496141
453.51637794787564,755.4408255601352
444.31621680250396,755.4408255601352
444.31621680250396,755.3813257305774
435.3019926245003,755.3813257305774
435.3019926245003,756.5266974495646
425.982831820013,756.5266974495646
425.982831820013,753.6707056307912
417.03554495026185,753.6707056307912
417.03554495026185,754.9499519662834
408.1254454739843,754.9499519662834
408.1254454739843,759.1744398648858
400.1301558771576,759.1744398648858
400.1301558771576,66.2617372710651
389.9556850227773,66.2617372710651
389.9556850227773,757.0101335647215
380.8001487495739,757.0101335647215
380.8001487495739,758.7430661005919
372.1801109423905,758.7430661005919
372.1801109423905,752.1088351048994
363.0394496265766,752.1088351048994
363.0394496265766,753.4252688338653
353.6161641203632,753.4252688338653
353.6161641203632,756.0358238557129
345.10025101490595,756.0358238557129
345.10025101490595,751.5138368093217
335.80340264650283,751.5138368093217
335.80340264650283,752.2427097214045
327.5626762527503,752.2427097214045
327.5626762527503,747.2893489107192
318.6897641699464,747.2893489107192
318.6897641699464,745.7051659487433
309.1697914407016,745.7051659487433
309.1697914407016,746.5530385199418
300.5795035482971,746.5530385199418
300.5795035482971,743.5557346059686
291.6694040720196,743.5557346059686
291.6694040720196,741.6740524962038
283.75592674083487,741.6740524962038
283.75592674083487,736.7281291642133
275.0987015401779,736.7281291642133
275.0987015401779,734.110136663671
267.94384703585484,734.110136663671
267.94384703585484,727.6618426353466
257.7768136601692,727.6618426353466
257.7768136601692,728.6287148656605
249.75177414856364,728.6287148656605
249.75177414856364,724.3447271375004
242.31429545384117,724.3447271375004
242.31429545384117,718.9451176051318
234.42313055874058,718.9451176051318
234.42313055874058,714.571880132635
226.46502835538755,714.571880132635
226.46502835538755,710.3473922340327
219.24323654281199,710.3473922340327
219.24323654281199,704.8659704360222
208.80101645542163,704.8659704360222
208.80101645542163,704.6130961604016
202.89565837181198,704.6130961604016
202.89565837181198,697.0268678917846
197.23573708512816,697.0268678917846
197.23573708512816,689.3588273575258
187.23976571942111,689.3588273575258
187.23976571942111,687.8267067464129
178.85028975177417,687.8267067464129
178.85028975177417,683.8476556447365
171.24918652576778,683.8476556447365
171.24918652576778,678.7455452601569
164.4438935200967,678.7455452601569
164.4438935200967,672.6393752517896
158.1592240230562,672.6393752517896
158.1592240230562,665.982831820013
153.957048560538,665.982831820013
153.957048560538,657.191732002851
148.98881279246336,657.191732002851
148.98881279246336,649.419566766866
140.68858656915307,649.419566766866
140.68858656915307,644.9347671139484
132.29911060150613,644.9347671139484
132.29911060150613,640.3309678019151
126.4755647835384,640.3309678019151
126.4755647835384,633.3174253927918
120.68176888034958,633.3174253927918
120.68176888034958,626.2890080262791
114.35991198983544,626.2890080262791
114.35991198983544,619.6696519879761
110.18004896340142,619.6696519879761
110.18004896340142,611.4214881155289
107.20505748551244,611.4214881155289
107.20505748551244,602.4295763736093
99.50726703647467,602.4295763736093
99.50726703647467,596.702717778673
93.85478322848553,596.702717778673
93.85478322848553,589.5032384021816
90.31454336979766,589.5032384021816
90.31454336979766,581.0096377328085
84.944683752208,581.0096377328085
84.944683752208,573.601908952865
85.11574576218663,573.601908952865
85.11574576218663,563.2489386098113
81.4267563296043,563.2489386098113
81.4267563296043,555.0528370882271
72.15222039728536,555.0528370882271
72.15222039728536,549.4301031950168
72.44971954507423,549.4301031950168
72.44971954507423,539.3820694784467
67.31785924571574,539.3820694784467
67.31785924571574,531.7289039015774
63.39830797359696,531.7289039015774
63.39830797359696,523.5179274226037
61.53150082122164,523.5179274226037
61.53150082122164,514.5632030741579
59.515944094951806,514.5632030741579
59.515944094951806,505.7200409061328
56.14676624624252,505.7200409061328
56.14676624624252,497.2933775450122
53.5510861817844,497.2933775450122
53.5510861817844,488.6212773869658
52.383402026712986,488.6212773869658
52.383402026712986,479.60705320896216
52.15284018717654,479.60705320896216
52.15284018717654,470.4366419783693
45.64504632929436,470.4366419783693
45.64504632929436,462.47110229632153
43.90467631472933,462.47110229632153
43.90467631472933,453.52381542657037
45.22854752238993,453.52381542657037
45.22854752238993,444.1749047073042
45.1169853419691,444.1749047073042
45.1169853419691,435.09374322104804
40.0,435.09374322104804
40.0,426.4216430630016
46.42598159224025,426.4216430630016
46.42598159224025,416.96117016331465
44.36579999380211,416.96117016331465
44.36579999380211,408.0510706870371
40.594998295577795,408.0510706870371
40.594998295577795,399.04428398772814
40.81068517772479,399.04428398772814
40.81068517772479,389.94824754408256
43.443552635656545,389.94824754408256
43.443552635656545,380.98608571694194
40.86274752858782,380.98608571694194
40.86274752858782,371.71898726331773
46.50035637918745,371.71898726331773
46.50035637918745,363.1435743283027
43.8972388360346,363.1435743283027
43.8972388360346,353.73516377947874
44.618674269422684,353.73516377947874
44.618674269422684,344.6540022932226
44.73023644984352,344.6540022932226
44.73023644984352,335.4315287117667
48.86547460410924,335.4315287117667
48.86547460410924,326.9528029997831
51.43884223248318,326.9528029997831
51.43884223248318,318.24351544826305
52.55446403669157,318.24351544826305
52.55446403669157,309.1697914407016
54.76339520902417,309.1697914407016
54.76339520902417,300.35637918745545
60.28944187920297,300.35637918745545
60.28944187920297,292.5619015153863
60.83237782391768,292.5619015153863
60.83237782391768,283.2204282748148
67.62279587219933,283.2204282748148
67.62279587219933,276.0655737704918
71.69109671821252,276.0655737704918
71.69109671821252,268.02565930149683
73.09678019151511,268.02565930149683
73.09678019151511,258.88499798568284
78.65257677647281,258.88499798568284
78.65257677647281,251.52933155660233
82.01431714648737,251.52933155660233
82.01431714648737,243.20679289720786
80.77969568316342,243.20679289720786
80.77969568316342,232.43732374724968
89.00554711952651,232.43732374724968
89.00554711952651,226.57659053580838
93.98865784499054,226.57659053580838
93.98865784499054,219.05729957544392
93.86965818587498,219.05729957544392
93.86965818587498,208.37708016982245
100.4443893520097,208.37708016982245
100.4443893520097,201.77259908890886
104.04412904025537,201.77259908890886
104.04412904025537,193.20462363258855
113.39303975952151,193.20462363258855
113.39303975952151,188.7570113731445
117.34977842511393,188.7570113731445
117.34977842511393,180.41959775636062
123.56007313520718,180.41959775636062
123.56007313520718,173.8076791967523
130.79673990517216,173.8076791967523
130.79673990517216,168.11800799528962
133.01310855619948,168.11800799528962
133.01310855619948,157.9955994917723
141.3951470451517,157.9955994917723
141.3951470451517,153.39180017973908
146.03613375065854,153.39180017973908
146.03613375065854,145.24776100901795
155.86848058508167,145.24776100901795
155.86848058508167,142.39176919024453
162.882022994205,142.39176919024453
162.882022994205,136.7690352970343
167.60482196535375,136.7690352970343
167.60482196535375,128.50599646719763
173.7407418884998,128.50599646719763
173.7407418884998,121.72301589761071
183.48383897858628,121.72301589761071
183.48383897858628,119.49920976788871
187.31414050636835,119.49920976788871
187.31414050636835,109.55530075304472
195.71105395271005,109.55530075304472
195.71105395271005,105.68781183178902
202.0180358858347,105.68781183178902
202.0180358858347,98.78583160308659
210.05795035482973,98.78583160308659
210.05795035482973,94.44978152406338
217.13843007220552,94.44978152406338
217.13843007220552,88.536985961759
227.9673990517215,88.536985961759
227.9673990517215,89.2361089590629
235.8139390746537,89.2361089590629
235.8139390746537,84.84799652917661
242.35148284731477,84.84799652917661
242.35148284731477,77.76007933310609
250.54758436889895,77.76007933310609
250.54758436889895,73.85540301837676
258.8329356348198,73.85540301837676
258.8329356348198,70.15153862840498
267.11828690074066,70.15153862840498
267.11828690074066,66.43279928104374
276.82419659735353,66.43279928104374
276.82419659735353,66.49973658929622
285.43679692584215,66.49973658929622
285.43679692584215,63.88174408875392
292.2941522823763,63.88174408875392
292.2941522823763,55.70051752455919
302.06699928724163,55.70051752455919
302.06699928724163,56.70457714834674
310.86553658309833,56.70457714834674
310.86553658309833,54.66670798599279
319.15088784901917,54.66670798599279
319.15088784901917,50.434782608695684
327.5626762527503,50.434782608695684
327.5626762527503,46.232607146177486
336.710775047259,46.232607146177486
336.710775047259,45.51860919148413
345.9481235861043,45.51860919148413
345.9481235861043,45.65992128668381
355.416033964486,45.65992128668381
355.416033964486,48.24072639375254
364.31125848337416,48.24072639375254
364.31125848337416,47.02841736651277
372.84948402491557,47.02841736651277
372.84948402491557,40.885059964671996
381.97527038334005,40.885059964671996
381.97527038334005,40.832997613808914
391.115931699154,40.832997613808914
391.115931699154,42.565930149679275
400.1599057919365,42.565930149679275
" fill="#C50F1F" stroke="#F9F1A5" stroke-width="0.5"/>
<polygon points="
522.2386810871114,732.4143915212743
400.1301558771576,732.4143915212743
400.1301558771576,66.2617372710651
522.2386810871114,66.2617372710651
" fill="#13A10E99" stroke="#F9F1A5" stroke-width="0.5"/>
<polygon points="
400.1301558771576,732.4143915212743
400.1301558771576,66.2617372710651
522.2386810871114,66.2617372710651
" fill="#F9F1A533" stroke="#F9F1A5" stroke-width="0.5"/>
</svg>