<?xml version="1.0" encoding="UTF-8" standalone="no"?>
<!DOCTYPE svg PUBLIC "-//W3C//DTD SVG 1.1//EN"
 "http://www.w3.org/Graphics/SVG/1.1/DTD/svg11.dtd">
<!-- Generated by graphviz version 2.43.0 (0)
 -->
<!-- Title: %3 Pages: 1 -->
<svg width="354pt" height="548pt"
 viewBox="0.00 0.00 354.00 548.00" xmlns="http://www.w3.org/2000/svg" xmlns:xlink="http://www.w3.org/1999/xlink">
<g id="graph0" class="graph" transform="scale(1 1) rotate(0) translate(4 544)">
<title>%3</title>
<polygon fill="#100f22" stroke="transparent" points="-4,4 -4,-544 350,-544 350,4 -4,4"/>
<!-- fff -->
<g id="node1" class="node">
<title>fff</title>
<polygon fill="#101019" stroke="#333340" stroke-width="1.5" points="202,-180 148,-180 148,-144 202,-144 202,-180"/>
<text text-anchor="middle" x="175" y="-158.3" font-family="Helvetica,sans-Serif" font-size="14.00" fill="#cccccc">fff</text>
</g>
<!-- out -->
<g id="node2" class="node">
<title>out</title>
<polygon fill="#009900" stroke="#333340" stroke-width="1.5" points="237,-36 183,-36 183,0 237,0 237,-36"/>
<text text-anchor="middle" x="210" y="-14.3" font-family="Helvetica,sans-Serif" font-size="14.00" fill="#cccccc">out</text>
</g>
<!-- fff&#45;&gt;out -->
<g id="edge13" class="edge">
<title>fff&#45;&gt;out</title>
<path fill="none" stroke="#009900" d="M195.67,-143.76C195.67,-116.06 195.67,-63.7 195.67,-36.09"/>
</g>
<!-- svr -->
<g id="node3" class="node">
<title>svr</title>
<polygon fill="#c50f1f" stroke="#333340" stroke-width="1.5" points="164,-540 110,-540 110,-504 164,-504 164,-540"/>
<text text-anchor="middle" x="137" y="-518.3" font-family="Helvetica,sans-Serif" font-size="14.00" fill="#cccccc">svr</text>
</g>
<!-- aaa -->
<g id="node9" class="node">
<title>aaa</title>
<polygon fill="#101019" stroke="#333340" stroke-width="1.5" points="164,-468 110,-468 110,-432 164,-432 164,-468"/>
<text text-anchor="middle" x="137" y="-446.3" font-family="Helvetica,sans-Serif" font-size="14.00" fill="#cccccc">aaa</text>
</g>
<!-- svr&#45;&gt;aaa -->
<g id="edge21" class="edge">
<title>svr&#45;&gt;aaa</title>
<path fill="none" stroke="#ffff66" d="M137,-503.83C137,-493 137,-479.29 137,-468.41"/>
</g>
<!-- fft -->
<g id="node10" class="node">
<title>fft</title>
<polygon fill="#881798" stroke="#333340" stroke-width="1.5" points="109,-396 55,-396 55,-360 109,-360 109,-396"/>
<text text-anchor="middle" x="82" y="-374.3" font-family="Helvetica,sans-Serif" font-size="14.00" fill="#cccccc">fft</text>
</g>
<!-- svr&#45;&gt;fft -->
<g id="edge22" class="edge">
<title>svr&#45;&gt;fft</title>
<path fill="none" stroke="#ffff66" d="M109.86,-522C92.42,-522 73,-522 73,-522 73,-522 73,-434.99 73,-396.24"/>
</g>
<!-- bbb -->
<g id="node15" class="node">
<title>bbb</title>
<polygon fill="#101019" stroke="#333340" stroke-width="1.5" points="312,-252 258,-252 258,-216 312,-216 312,-252"/>
<text text-anchor="middle" x="285" y="-230.3" font-family="Helvetica,sans-Serif" font-size="14.00" fill="#cccccc">bbb</text>
</g>
<!-- svr&#45;&gt;bbb -->
<g id="edge23" class="edge">
<title>svr&#45;&gt;bbb</title>
<path fill="none" stroke="#cccccc" d="M164.35,-522C209.33,-522 294,-522 294,-522 294,-522 294,-315.07 294,-252.02"/>
</g>
<!-- iii -->
<g id="node4" class="node">
<title>iii</title>
<polygon fill="#101019" stroke="#333340" stroke-width="1.5" points="92,-108 38,-108 38,-72 92,-72 92,-108"/>
<text text-anchor="middle" x="65" y="-86.3" font-family="Helvetica,sans-Serif" font-size="14.00" fill="#cccccc">iii</text>
</g>
<!-- iii&#45;&gt;out -->
<g id="edge19" class="edge">
<title>iii&#45;&gt;out</title>
<path fill="none" stroke="#ffff66" d="M92.29,-81C128.89,-81 189.33,-81 189.33,-81 189.33,-81 189.33,-54.83 189.33,-36.22"/>
</g>
<!-- dac -->
<g id="node5" class="node">
<title>dac</title>
<polygon fill="#881798" stroke="#333340" stroke-width="1.5" points="92,-180 38,-180 38,-144 92,-144 92,-180"/>
<text text-anchor="middle" x="65" y="-158.3" font-family="Helvetica,sans-Serif" font-size="14.00" fill="#cccccc">dac</text>
</g>
<!-- dac&#45;&gt;iii -->
<g id="edge20" class="edge">
<title>dac&#45;&gt;iii</title>
<path fill="none" stroke="#ffff66" d="M65,-143.83C65,-133 65,-119.29 65,-108.41"/>
</g>
<!-- kkk -->
<g id="node6" class="node">
<title>kkk</title>
<polygon fill="#101019" stroke="#333340" stroke-width="1.5" points="54,-252 0,-252 0,-216 54,-216 54,-252"/>
<text text-anchor="middle" x="27" y="-230.3" font-family="Helvetica,sans-Serif" font-size="14.00" fill="#cccccc">kkk</text>
</g>
<!-- kkk&#45;&gt;iii -->
<g id="edge29" class="edge">
<title>kkk&#45;&gt;iii</title>
<path fill="none" stroke="#cccccc" d="M19,-215.76C19,-177.01 19,-90 19,-90 19,-90 27.96,-90 37.98,-90"/>
</g>
<!-- kkk&#45;&gt;dac -->
<g id="edge28" class="edge">
<title>kkk&#45;&gt;dac</title>
<path fill="none" stroke="#ffff66" d="M46,-215.83C46,-205 46,-191.29 46,-180.41"/>
</g>
<!-- ccc -->
<g id="node7" class="node">
<title>ccc</title>
<polygon fill="#101019" stroke="#333340" stroke-width="1.5" points="240,-252 186,-252 186,-216 240,-216 240,-252"/>
<text text-anchor="middle" x="213" y="-230.3" font-family="Helvetica,sans-Serif" font-size="14.00" fill="#cccccc">ccc</text>
</g>
<!-- ccc&#45;&gt;fff -->
<g id="edge10" class="edge">
<title>ccc&#45;&gt;fff</title>
<path fill="none" stroke="#009900" d="M194,-215.83C194,-205 194,-191.29 194,-180.41"/>
</g>
<!-- eee -->
<g id="node12" class="node">
<title>eee</title>
<polygon fill="#101019" stroke="#333340" stroke-width="1.5" points="346,-180 292,-180 292,-144 346,-144 346,-180"/>
<text text-anchor="middle" x="319" y="-158.3" font-family="Helvetica,sans-Serif" font-size="14.00" fill="#cccccc">eee</text>
</g>
<!-- ccc&#45;&gt;eee -->
<g id="edge9" class="edge">
<title>ccc&#45;&gt;eee</title>
<path fill="none" stroke="#009900" d="M233.33,-215.58C233.33,-206.72 233.33,-198 233.33,-198 233.33,-198 298.67,-198 298.67,-198 298.67,-198 298.67,-189.28 298.67,-180.42"/>
</g>
<!-- ddd -->
<g id="node16" class="node">
<title>ddd</title>
<polygon fill="#101019" stroke="#333340" stroke-width="1.5" points="274,-180 220,-180 220,-144 274,-144 274,-180"/>
<text text-anchor="middle" x="247" y="-158.3" font-family="Helvetica,sans-Serif" font-size="14.00" fill="#cccccc">ddd</text>
</g>
<!-- ccc&#45;&gt;ddd -->
<g id="edge8" class="edge">
<title>ccc&#45;&gt;ddd</title>
<path fill="none" stroke="#009900" d="M226.67,-215.83C226.67,-205 226.67,-191.29 226.67,-180.41"/>
</g>
<!-- ggg -->
<g id="node8" class="node">
<title>ggg</title>
<polygon fill="#101019" stroke="#333340" stroke-width="1.5" points="269,-108 215,-108 215,-72 269,-72 269,-108"/>
<text text-anchor="middle" x="242" y="-86.3" font-family="Helvetica,sans-Serif" font-size="14.00" fill="#cccccc">ggg</text>
</g>
<!-- ggg&#45;&gt;out -->
<g id="edge14" class="edge">
<title>ggg&#45;&gt;out</title>
<path fill="none" stroke="#009900" d="M226,-71.83C226,-61 226,-47.29 226,-36.41"/>
</g>
<!-- aaa&#45;&gt;fft -->
<g id="edge3" class="edge">
<title>aaa&#45;&gt;fft</title>
<path fill="none" stroke="#ffff66" d="M109.98,-450C99.96,-450 91,-450 91,-450 91,-450 91,-417.5 91,-396.17"/>
</g>
<!-- you -->
<g id="node11" class="node">
<title>you</title>
<polygon fill="#009900" stroke="#333340" stroke-width="1.5" points="240,-324 186,-324 186,-288 240,-288 240,-324"/>
<text text-anchor="middle" x="213" y="-302.3" font-family="Helvetica,sans-Serif" font-size="14.00" fill="#cccccc">you</text>
</g>
<!-- aaa&#45;&gt;you -->
<g id="edge1" class="edge">
<title>aaa&#45;&gt;you</title>
<path fill="none" stroke="#cccccc" d="M164.01,-450C185.85,-450 213,-450 213,-450 213,-450 213,-362.99 213,-324.24"/>
</g>
<!-- hhh -->
<g id="node13" class="node">
<title>hhh</title>
<polygon fill="#101019" stroke="#333340" stroke-width="1.5" points="164,-324 110,-324 110,-288 164,-288 164,-324"/>
<text text-anchor="middle" x="137" y="-302.3" font-family="Helvetica,sans-Serif" font-size="14.00" fill="#cccccc">hhh</text>
</g>
<!-- aaa&#45;&gt;hhh -->
<g id="edge2" class="edge">
<title>aaa&#45;&gt;hhh</title>
<path fill="none" stroke="#cccccc" d="M137,-431.76C137,-404.06 137,-351.7 137,-324.09"/>
</g>
<!-- fft&#45;&gt;iii -->
<g id="edge27" class="edge">
<title>fft&#45;&gt;iii</title>
<path fill="none" stroke="#cccccc" d="M97.67,-359.69C97.67,-297.62 97.67,-99 97.67,-99 97.67,-99 95.5,-99 92.27,-99"/>
</g>
<!-- fft&#45;&gt;kkk -->
<g id="edge25" class="edge">
<title>fft&#45;&gt;kkk</title>
<path fill="none" stroke="#ffff66" d="M73.5,-359.96C73.5,-322.55 73.5,-240 73.5,-240 73.5,-240 64.28,-240 54.05,-240"/>
</g>
<!-- fft&#45;&gt;hhh -->
<g id="edge26" class="edge">
<title>fft&#45;&gt;hhh</title>
<path fill="none" stroke="#ffff66" d="M103.33,-359.83C103.33,-338.5 103.33,-306 103.33,-306 103.33,-306 106,-306 109.82,-306"/>
</g>
<!-- ooo -->
<g id="node14" class="node">
<title>ooo</title>
<polygon fill="#101019" stroke="#333340" stroke-width="1.5" points="54,-324 0,-324 0,-288 54,-288 54,-324"/>
<text text-anchor="middle" x="27" y="-302.3" font-family="Helvetica,sans-Serif" font-size="14.00" fill="#cccccc">ooo</text>
</g>
<!-- fft&#45;&gt;ooo -->
<g id="edge24" class="edge">
<title>fft&#45;&gt;ooo</title>
<path fill="none" stroke="#ffff66" d="M64.25,-359.78C64.25,-341.17 64.25,-315 64.25,-315 64.25,-315 59.85,-315 54.07,-315"/>
</g>
<!-- you&#45;&gt;ccc -->
<g id="edge5" class="edge">
<title>you&#45;&gt;ccc</title>
<path fill="none" stroke="#009900" d="M213,-287.83C213,-277 213,-263.29 213,-252.41"/>
</g>
<!-- you&#45;&gt;bbb -->
<g id="edge4" class="edge">
<title>you&#45;&gt;bbb</title>
<path fill="none" stroke="#009900" d="M240.08,-306C257.16,-306 276,-306 276,-306 276,-306 276,-273.5 276,-252.17"/>
</g>
<!-- eee&#45;&gt;out -->
<g id="edge12" class="edge">
<title>eee&#45;&gt;out</title>
<path fill="none" stroke="#009900" d="M319,-143.76C319,-105.01 319,-18 319,-18 319,-18 269.51,-18 237.22,-18"/>
</g>
<!-- hhh&#45;&gt;fff -->
<g id="edge16" class="edge">
<title>hhh&#45;&gt;fff</title>
<path fill="none" stroke="#cccccc" d="M153.33,-287.76C153.33,-260.06 153.33,-207.7 153.33,-180.09"/>
</g>
<!-- hhh&#45;&gt;iii -->
<g id="edge17" class="edge">
<title>hhh&#45;&gt;iii</title>
<path fill="none" stroke="#cccccc" d="M129,-287.96C129,-236.04 129,-90 129,-90 129,-90 109.58,-90 92.14,-90"/>
</g>
<!-- hhh&#45;&gt;dac -->
<g id="edge18" class="edge">
<title>hhh&#45;&gt;dac</title>
<path fill="none" stroke="#ffff66" d="M109.88,-297C96.31,-297 82.75,-297 82.75,-297 82.75,-297 82.75,-217.06 82.75,-180.21"/>
</g>
<!-- hhh&#45;&gt;ccc -->
<g id="edge15" class="edge">
<title>hhh&#45;&gt;ccc</title>
<path fill="none" stroke="#cccccc" d="M158.67,-287.91C158.67,-264.87 158.67,-228 158.67,-228 158.67,-228 172.25,-228 185.83,-228"/>
</g>
<!-- ooo&#45;&gt;kkk -->
<g id="edge30" class="edge">
<title>ooo&#45;&gt;kkk</title>
<path fill="none" stroke="#ffff66" d="M27,-287.83C27,-277 27,-263.29 27,-252.41"/>
</g>
<!-- bbb&#45;&gt;eee -->
<g id="edge7" class="edge">
<title>bbb&#45;&gt;eee</title>
<path fill="none" stroke="#009900" d="M305.33,-215.83C305.33,-205 305.33,-191.29 305.33,-180.41"/>
</g>
<!-- bbb&#45;&gt;ddd -->
<g id="edge6" class="edge">
<title>bbb&#45;&gt;ddd</title>
<path fill="none" stroke="#009900" d="M266,-215.83C266,-205 266,-191.29 266,-180.41"/>
</g>
<!-- ddd&#45;&gt;ggg -->
<g id="edge11" class="edge">
<title>ddd&#45;&gt;ggg</title>
<path fill="none" stroke="#009900" d="M244.5,-143.83C244.5,-133 244.5,-119.29 244.5,-108.41"/>
</g>
</g>
</svg>
