<svg xmlns="http://www.w3.org/2000/svg" width="800" height="800" style="background-color:#0C0C0C"> <polygon points="360.5273154091657,360.5273154091657 360.5273154091657,350.9573703405122 354.3491372537544,350.9573703405122 354.3491372537544,340.9022808941845 344.4883995685818,340.9022808941845 344.4883995685818,333.66444601219007 359.3318870440989,333.66444601219007 359.3318870440989,319.859119242863 344.4883995685818,319.859119242863 344.4883995685818,311.1337320128582 350.85338507541013,311.1337320128582 350.85338507541013,313.412199227336 362.7370785687866,313.412199227336 362.7370785687866,319.5020356731312 373.09743924149836,319.5020356731312 373.09743924149836,329.7069038421987 380.46230866981654,329.7069038421987 380.46230866981654,339.5282275338503 388.2261719734331,339.5282275338503 388.2261719734331,354.7058325082791 402.54196681929767,354.7058325082791 402.54196681929767,350.36116781360647 414.7195039772492,350.36116781360647 414.7195039772492,339.5282275338503 421.63978023023486,339.5282275338503 421.63978023023486,352.11041687440377 418.91699720842973,352.11041687440377 418.91699720842973,360.24401172878345 409.37786772513994,360.24401172878345 409.37786772513994,357.0064614263622 387.7461311670522,357.0064614263622 387.7461311670522,360.24401172878345 380.46230866981654,360.24401172878345 380.46230866981654,370.995461288649 387.3948445886265,370.995461288649 387.3948445886265,373.1088113297064 400.43516266316,373.1088113297064 400.43516266316,360.856440283986 409.7748922876023,360.856440283986 409.7748922876023,362.41988051818447 407.11559880215856,362.41988051818447 407.11559880215856,382.918707459549 408.5727238800123,382.918707459549 408.5727238800123,387.28131786414986 407.11559880215856,387.28131786414986 407.11559880215856,404.26153750355206 409.7748922876023,404.26153750355206 409.7748922876023,406.8609194998999 410.77671778512774,406.8609194998999 410.77671778512774,392.1626619118394 427.94174772631044,392.1626619118394 427.94174772631044,385.6450685286196 432.9501263203237,385.6450685286196 432.9501263203237,361.31481864917066 442.79774449885633,361.31481864917066 442.79774449885633,360.856440283986 452.64497436218187,360.856440283986 452.64497436218187,356.1425433009594 436.48043855210017,356.1425433009594 436.48043855210017,340.67930475490584 423.06933492838425,340.67930475490584 423.06933492838425,329.92452677897944 409.0084967527834,329.92452677897944 409.0084967527834,325.02368376053323 400.43516266316,325.02368376053323 400.43516266316,314.0912515773572 414.15386740450253,314.0912515773572 414.15386740450253,313.412199227336 430.213918687073,313.412199227336 430.213918687073,311.1337320128582 448.3966395756713,311.1337320128582 448.3966395756713,302.4258189671731 429.18973732833865,302.4258189671731 429.18973732833865,293.6629315828823 428.79260181867426,293.6629315828823 428.79260181867426,275.0766402469019 426.2486102129396,275.0766402469019 426.2486102129396,274.43597562878284 419.0954835196946,274.43597562878284 419.0954835196946,262.4175644953421 441.5958534592713,262.4175644953421 441.5958534592713,254.72653802985783 419.0954835196946,254.72653802985783 419.0954835196946,244.2538433150913 411.08756410841374,244.2538433150913 411.08756410841374,226.85540819763912 411.50128622478155,226.85540819763912 411.50128622478155,213.10078429963954 411.08756410841374,213.10078429963954 411.08756410841374,208.94012553953277 394.0461570870923,208.94012553953277 394.0461570870923,187.77034539389516 393.5133886229469,187.77034539389516 393.5133886229469,201.85251316908617 375.67499237584695,201.85251316908617 375.67499237584695,209.17666497425955 363.9433520228518,209.17666497425955 363.9433520228518,217.25140233796265 360.379727893666,217.25140233796265 360.379727893666,225.46057997372492 377.7096808506655,225.46057997372492 377.7096808506655,220.94794121517975 399.5000996444558,220.94794121517975 399.5000996444558,225.46057997372492 407.23766846119145,225.46057997372492 407.23766846119145,232.98565716177364 409.39844843111644,232.98565716177364 409.39844843111644,241.59660235288504 388.8351889021733,241.59660235288504 388.8351889021733,250.9752189716387 398.84459583806535,250.9752189716387 398.84459583806535,260.0330317557242 409.39844843111644,260.0330317557242 409.39844843111644,264.5004040558414 396.2484313105763,264.5004040558414 396.2484313105763,265.7250115350419 392.31396615860706,265.7250115350419 392.31396615860706,276.70567801430025 379.9753891369098,276.70567801430025 379.9753891369098,301.7296252744383 373.463537271395,301.7296252744383 373.463537271395,276.70567801430025 364.0952110056296,276.70567801430025 364.0952110056296,265.7250115350419 360.379727893666,265.7250115350419 360.379727893666,274.43597562878284 344.4883995685818,274.43597562878284 344.4883995685818,272.2665695139001 326.7605622083042,272.2665695139001 326.7605622083042,268.05551298727147 312.7001123479105,268.05551298727147 312.7001123479105,266.107918066046 302.4306451704614,266.107918066046 302.4306451704614,253.0866829102616 308.4377982139442,253.0866829102616 308.4377982139442,239.74015055812683 302.4306451704614,239.74015055812683 302.4306451704614,235.9338294245016 293.29186866569484,235.9338294245016 293.29186866569484,222.49834515313972 274.4403303064625,222.49834515313972 274.4403303064625,220.10812636941785 269.28353209293437,220.10812636941785 269.28353209293437,218.60029842023667 247.6535152164781,218.60029842023667 247.6535152164781,203.57616116301514 244.98387590444506,203.57616116301514 244.98387590444506,198.7438835154231 262.3927677956885,198.7438835154231 262.3927677956885,194.07053773473828 269.28353209293437,194.07053773473828 269.28353209293437,192.43933649690035 265.08964464581976,192.43933649690035 265.08964464581976,186.15764460199563 247.22118170696984,186.15764460199563 247.22118170696984,180.67890534497855 229.47062790707673,180.67890534497855 229.47062790707673,171.92677983928465 222.70268216247746,171.92677983928465 222.70268216247746,165.96303488859584 210.21011042436334,165.96303488859584 210.21011042436334,180.93602548568177 189.67353369750828,180.93602548568177 189.67353369750828,165.96303488859584 188.1313953260995,165.96303488859584 188.1313953260995,165.55042224424832 191.58260220282895,165.55042224424832 191.58260220282895,145.86300766492613 203.17220240042593,145.86300766492613 203.17220240042593,165.55042224424832 217.71227701519297,165.55042224424832 217.71227701519297,158.87162257647972 221.8106389213602,158.87162257647972 221.8106389213602,144.89219191036798 222.70268216247746,144.89219191036798 222.70268216247746,125.74980546101544 232.13338849258395,125.74980546101544 232.13338849258395,106.423135709092 235.12435863849475,106.423135709092 235.12435863849475,97.7048213632166 251.47597916799862,97.7048213632166 251.47597916799862,91.34269274684054 248.0612461839363,91.34269274684054 248.0612461839363,74.5683633776045 239.85744948747248,74.5683633776045 239.85744948747248,63.63784503366346 232.13338849258395,63.63784503366346 232.13338849258395,58.44227077302602 222.70268216247746,58.44227077302602 222.70268216247746,38.12528629578774 213.1894865876621,38.12528629578774 213.1894865876621,27.736800507361554 206.51620654319444,27.736800507361554 206.51620654319444,51.73412557032062 199.90436351185062,51.73412557032062 199.90436351185062,54.19976071462202 197.1858796941241,54.19976071462202 197.1858796941241,60.87631370154953 179.1206796292755,60.87631370154953 179.1206796292755,41.14083124694808 173.40523451672854,41.14083124694808 173.40523451672854,27.736800507361554 165.94988764515534,27.736800507361554 165.94988764515534,45.13215683995741 149.69498533902066,45.13215683995741 149.69498533902066,27.736800507361554 146.3640729660916,27.736800507361554 146.3640729660916,38.12528629578774 142.97885193776915,38.12528629578774 142.97885193776915,45.24285441078229 124.66180172431368,45.24285441078229 124.66180172431368,64.79957318611379 127.01726629699984,64.79957318611379 127.01726629699984,69.20509242109955 142.97885193776915,69.20509242109955 142.97885193776915,81.64069277097155 131.0837031457831,81.64069277097155 131.0837031457831,100.2405474024001 125.27986085001922,100.2405474024001 125.27986085001922,105.54612581384973 123.59762389924774,105.54612581384973 123.59762389924774,124.510442003945 108.74911606283884,124.510442003945 108.74911606283884,111.89294371634573 84.32533769207907,111.89294371634573 84.32533769207907,100.2405474024001 84.13129103572957,100.2405474024001 84.13129103572957,107.94150364246599 75.08329707902367,107.94150364246599 75.08329707902367,106.6443366931382 83.86271559641679,106.6443366931382 83.86271559641679,86.28042154944147 75.08329707902367,86.28042154944147 75.08329707902367,81.93337148992524 67.0689427300251,81.93337148992524 67.0689427300251,82.85237490113565 64.02990470883502,82.85237490113565 64.02990470883502,101.46562640720924 67.0689427300251,101.46562640720924 67.0689427300251,107.94150364246599 57.65044059214186,107.94150364246599 57.65044059214186,114.38759155397783 63.9277223357659,114.38759155397783 63.9277223357659,120.5572267748328 84.13129103572957,120.5572267748328 84.13129103572957,127.81677957162454 97.67334009464074,127.81677957162454 97.67334009464074,135.77923836687384 114.2594197988333,135.77923836687384 114.2594197988333,147.5763653058669 120.29824826849556,147.5763653058669 120.29824826849556,153.1837201068366 139.3453865449058,153.1837201068366 139.3453865449058,156.84850034747276 142.97885193776915,156.84850034747276 142.97885193776915,175.752350312462 127.97806906657483,175.752350312462 127.97806906657483,179.6682595448918 108.96879152285713,179.6682595448918 108.96879152285713,180.67890534497855 97.28771535718688,180.67890534497855 97.28771535718688,187.59094376821355 98.25168012201974,187.59094376821355 98.25168012201974,188.02391522413345 99.4636118833884,188.02391522413345 99.4636118833884,188.35886482706036 115.21897441238548,188.35886482706036 115.21897441238548,188.02391522413345 124.16583999444154,188.02391522413345 124.16583999444154,194.80473084416815 125.67993646053739,194.80473084416815 125.67993646053739,218.74866256615053 132.17364845852038,218.74866256615053 132.17364845852038,219.5204945138689 146.38753829932085,219.5204945138689 146.38753829932085,229.0810090703498 147.26832039943213,229.0810090703498 147.26832039943213,210.69960947971725 148.88587513142042,210.69960947971725 148.88587513142042,198.77009479190258 165.56476217011064,198.77009479190258 165.56476217011064,210.6353987865427 181.11406800813853,210.6353987865427 181.11406800813853,229.0810090703498 187.9720474071847,229.0810090703498 187.9720474071847,241.09412247489368 207.69257972631266,241.09412247489368 207.69257972631266,251.2262092794298 223.7299423060681,251.2262092794298 223.7299423060681,260.69056034855174 204.78645645315387,260.69056034855174 204.78645645315387,265.8737639961629 199.78146174880249,265.8737639961629 199.78146174880249,266.7799530055389 184.95730682323907,266.7799530055389 184.95730682323907,276.6366411178374 183.97916855334694,276.6366411178374 183.97916855334694,289.2027708508971 183.9401428750331,289.2027708508971 183.9401428750331,280.14218438676085 179.73674170534449,280.14218438676085 179.73674170534449,263.78748507240067 172.84617156570218,263.78748507240067 172.84617156570218,288.1920418404088 162.79105438257398,288.1920418404088 162.79105438257398,289.2027708508971 149.81650026204343,289.2027708508971 149.81650026204343,289.49026278815586 130.74215218433545,289.49026278815586 130.74215218433545,303.9088779535012 108.76426035591585,303.9088779535012 108.76426035591585,316.69332404335427 119.96141256313416,316.69332404335427 119.96141256313416,328.22162591182996 130.74215218433545,328.22162591182996 130.74215218433545,332.9567415472447 118.5185442007412,332.9567415472447 118.5185442007412,346.27023936997523 117.920566518603,346.27023936997523 117.920566518603,349.79591955606696 118.5185442007412,349.79591955606696 118.5185442007412,360.2807629894557 111.88600951621889,360.2807629894557 111.88600951621889,361.87912385549294 110.8740046129073,361.87912385549294 110.8740046129073,378.9685432784926 97.28771535718688,378.9685432784926 97.28771535718688,386.12330644296753 92.65417188523011,386.12330644296753 92.65417188523011,398.5949368966986 100.8792149708826,398.5949368966986 100.8792149708826,398.9763456404753 124.92505169792905,398.9763456404753 124.92505169792905,398.5949368966986 133.65640234004292,398.5949368966986 133.65640234004292,408.58168286657616 130.11782454171524,408.58168286657616 130.11782454171524,403.7590853623612 107.50426071926793,403.7590853623612 107.50426071926793,408.58168286657616 102.73819081448698,408.58168286657616 102.73819081448698,418.8391400094055 92.65417188523011,418.8391400094055 92.65417188523011,427.37347615751565 97.28771535718688,427.37347615751565 97.28771535718688,443.9185053969573 101.37362343992632,443.9185053969573 101.37362343992632,425.6712964471794 117.18834272200917,425.6712964471794 117.18834272200917,421.79263773783094 135.01439609288335,421.79263773783094 135.01439609288335,431.71145628326593 143.60772841567257,431.71145628326593 143.60772841567257,443.9185053969573 144.83671830935324,443.9185053969573 144.83671830935324,443.6331214565371 150.1977148482166,443.6331214565371 150.1977148482166,418.3212662071326 158.91464235406664,418.3212662071326 158.91464235406664,430.8347514928293 176.43342744892024,430.8347514928293 176.43342744892024,443.6331214565371 186.4224200996389,443.6331214565371 186.4224200996389,443.9185053969573 189.76611913760186,443.9185053969573 189.76611913760186,428.84485795083015 208.37107734032375,428.84485795083015 208.37107734032375,443.9185053969573 215.95257118060442,443.9185053969573 215.95257118060442,446.4329018365506 204.94047890637125,446.4329018365506 204.94047890637125,449.63597529594125 196.23203886147647,449.63597529594125 196.23203886147647,464.02629892476904 180.85678144663225,464.02629892476904 180.85678144663225,464.75724682853956 175.29147563523168,464.75724682853956 175.29147563523168,472.9113946520952 185.05832425068687,472.9113946520952 185.05832425068687,480.8198221599562 201.82042169089917,480.8198221599562 201.82042169089917,499.26984259504394 204.94047890637125,499.26984259504394 204.94047890637125,508.76237425348137 194.60782729736638,508.76237425348137 194.60782729736638,516.443637365187 183.87141108337585,516.443637365187 183.87141108337585,534.9566758110275 176.16748700565566,534.9566758110275 176.16748700565566,516.443637365187 164.66104173597978,516.443637365187 164.66104173597978,518.8961530028485 154.96153807215646,518.8961530028485 154.96153807215646,520.874424825435 150.46889754677707,520.874424825435 150.46889754677707,514.8887955391458 137.63685510725335,514.8887955391458 137.63685510725335,520.874424825435 133.67848083324677,520.874424825435 133.67848083324677,522.743441390823 147.542970198056,522.743441390823 147.542970198056,528.3041983669403 135.38437727485103,528.3041983669403 135.38437727485103,547.5237485953044 133.67848083324677,547.5237485953044 133.67848083324677,567.4950493278194 122.04954985253036,567.4950493278194 122.04954985253036,563.8868521602183 101.88353678045365,563.8868521602183 101.88353678045365,546.3982169675162 92.98576533529562,546.3982169675162 92.98576533529562,531.9967986184854 82.3868959150211,531.9967986184854 82.3868959150211,520.874424825435 67.52479704636359,520.874424825435 67.52479704636359,533.2264541953783 43.201398156639975,533.2264541953783 43.201398156639975,533.3554580545381 51.83711231060446,533.3554580545381 51.83711231060446,542.870706152591 54.79696176634602,542.870706152591 54.79696176634602,559.4373700964284 66.25592163355331,559.4373700964284 66.25592163355331,561.005081797905 67.52479704636359,561.005081797905 67.52479704636359,561.9746216596398 69.07203898906573,561.9746216596398 69.07203898906573,571.6162386208042 89.06625031879985,571.6162386208042 89.06625031879985,588.6882670698858 102.98443812939134,588.6882670698858 102.98443812939134,571.6162386208042 119.78428535509414,571.6162386208042 119.78428535509414,583.572158742702 124.09158857948334,583.572158742702 124.09158857948334,599.8012103507638 131.09743286203425,599.8012103507638 131.09743286203425,607.7162669539459 131.67011458210973,607.7162669539459 131.67011458210973,623.3894730798403 147.3643452027886,623.3894730798403 147.3643452027886,644.0621820235855 158.76727673297103,644.0621820235855 158.76727673297103,635.119338277603 174.73307836741748,635.119338277603 174.73307836741748,623.3894730798403 190.0553307564921,623.3894730798403 190.0553307564921,624.1421666352085 215.95257118060442,624.1421666352085 215.95257118060442,626.1842608357625 228.70242948022485,626.1842608357625 228.70242948022485,637.8944051683644 239.77859376363003,637.8944051683644 239.77859376363003,646.4601671114493 224.67476867855086,646.4601671114493 224.67476867855086,655.2082707810697 239.77859376363003,655.2082707810697 239.77859376363003,670.0063531141562 228.70242948022485,670.0063531141562 228.70242948022485,670.410339613546 245.37685089403337,670.410339613546 245.37685089403337,675.8030947889902 249.9357268990243,675.8030947889902 249.9357268990243,679.7257718007438 260.2867957435661,679.7257718007438 260.2867957435661,680.2256444194875 259.90885409985276,680.2256444194875 259.90885409985276,698.7947666759538 260.2867957435661,698.7947666759538 260.2867957435661,705.8209697700772 249.9357268990243,705.8209697700772 249.9357268990243,722.293134434586 253.78795243748922,722.293134434586 253.78795243748922,726.8934769563355 257.26428885547836,726.8934769563355 257.26428885547836,742.8493765530008 253.78795243748922,742.8493765530008 253.78795243748922,749.0296904420511 265.009513029154,749.0296904420511 265.009513029154,766.1293170076375 275.68385428360904,766.1293170076375 275.68385428360904,770.0429795592262 283.09848353203745,770.0429795592262 283.09848353203745,772.2631717558379 289.2024102724905,772.2631717558379 289.2024102724905,768.5636650409666 289.55827342299995,768.5636650409666 289.55827342299995,750.0748685587695 305.9890270443513,750.0748685587695 305.9890270443513,757.5834423505163 309.20510906317986,757.5834423505163 309.20510906317986,772.2631717558379 317.34588774889096,772.2631717558379 317.34588774889096,770.0429795592262 317.7335650095824,770.0429795592262 317.7335650095824,749.0296904420511 319.708286521704,749.0296904420511 319.708286521704,743.8892292040218 310.20011130778045,743.8892292040218 310.20011130778045,749.0404245838474 294.8306508842423,749.0404245838474 294.8306508842423,743.8892292040218 282.73066582050933,743.8892292040218 282.73066582050933,736.4239248210664 276.6843484147101,736.4239248210664 276.6843484147101,732.9981803272027 267.16760252942976,732.9981803272027 267.16760252942976,717.6596464362302 255.78416997000403,717.6596464362302 255.78416997000403,714.4922425022921 262.90040671857423,714.4922425022921 262.90040671857423,705.9227638279392 265.3952209770094,705.9227638279392 265.3952209770094,695.27607616359 273.2111739919788,695.27607616359 273.2111739919788,684.6607865574151 288.2932811622607,684.6607865574151 288.2932811622607,695.27607616359 300.0528802101673,695.27607616359 300.0528802101673,686.3232194326243 319.708286521704,686.3232194326243 319.708286521704,675.8030947889902 323.05084835084614,675.8030947889902 323.05084835084614,659.917119666404 344.7775279770705,659.917119666404 344.7775279770705,653.6616667847792 321.74203194530526,653.6616667847792 321.74203194530526,664.7238239839282 314.4645889121863,664.7238239839282 314.4645889121863,676.1676950316595 297.7492279808289,676.1676950316595 297.7492279808289,686.1633167776994 296.98915643652566,686.1633167776994 296.98915643652566,676.1048989153109 282.46045390996665,676.1048989153109 282.46045390996665,653.6616667847792 276.7001583909993,653.6616667847792 276.7001583909993,640.3277824136758 278.7616406151079,640.3277824136758 278.7616406151079,634.0648405959141 276.7001583909993,634.0648405959141 276.7001583909993,621.5304417626348 282.9738898241584,621.5304417626348 282.9738898241584,608.3083644343766 301.681446451957,608.3083644343766 301.681446451957,600.5048375060345 308.6753639102898,600.5048375060345 308.6753639102898,579.2885427459461 323.95897893625767,579.2885427459461 323.95897893625767,592.9473082613922 333.8861462586454,592.9473082613922 333.8861462586454,600.5048375060345 337.741034529959,600.5048375060345 337.741034529959,608.3083644343766 344.7775279770705,608.3083644343766 344.7775279770705,591.2789397108744 353.65715955469676,591.2789397108744 353.65715955469676,590.6304255782118 374.0912488036771,590.6304255782118 374.0912488036771,582.8933560238853 377.7061860138015,582.8933560238853 377.7061860138015,580.624208374378 396.1283309643794,580.624208374378 396.1283309643794,568.8690472145527 414.9267810874407,568.8690472145527 414.9267810874407,557.2572853133503 427.0180567958143,557.2572853133503 427.0180567958143,542.1464150809422 404.34752158512487,542.1464150809422 404.34752158512487,542.0421524478351 390.99316745524703,542.0421524478351 390.99316745524703,557.0024950638897 386.959765135868,557.0024950638897 386.959765135868,542.0421524478351 374.0912488036771,542.0421524478351 374.0912488036771,535.8260026125292 364.6154424359457,535.8260026125292 364.6154424359457,520.0777961780631 344.7775279770705,520.0777961780631 344.7775279770705,505.99601671807915 358.07859971317373,505.99601671807915 358.07859971317373,491.62951900088717 373.0806030035904,491.62951900088717 373.0806030035904,479.9246723971821 356.7975755817412,479.9246723971821 356.7975755817412,471.9181952995276 344.7775279770705,471.9181952995276 344.7775279770705,446.430405524505 346.9677644291343,446.430405524505 346.9677644291343,443.9185053969573 360.5273154091657,443.9185053969573 360.5273154091657,437.2892159180943 354.7084397675268,437.2892159180943 354.7084397675268,439.3435420476721 333.0885745600562,439.3435420476721 333.0885745600562,437.2892159180943 322.68253137690886,437.2892159180943 322.68253137690886,433.8812507133558 320.04831195912374,433.8812507133558 320.04831195912374,418.3646188263256 330.7454806003963,418.3646188263256 330.7454806003963,393.8776282872096 333.4336758319688,393.8776282872096 333.4336758319688,378.34069306220795 353.82177746570795,378.34069306220795 353.82177746570795,360.5273154091657 360.5273154091657,360.5273154091657" fill="#C50F1F" stroke="#F9F1A5" stroke-width="0.5"/> </svg>