<svg xmlns="http://www.w3.org/2000/svg" width="800" height="800" style="background-color:#0C0C0C">
<polygon points="
508.89467870188776,438.17236426288594
508.89467870188776,447.42705349730585
502.9200238367833,447.42705349730585
502.9200238367833,457.1509053462436
493.3841213583748,457.1509053462436
493.3841213583748,464.150309426661
507.73863047576555,464.150309426661
507.73863047576555,477.500857221155
493.3841213583748,477.500857221155
493.3841213583748,485.93881027985867
499.53942971434753,485.93881027985867
499.53942971434753,483.73540097609214
511.0316472191835,483.73540097609214
511.0316472191835,477.8461776430464
521.0507139635179,477.8461776430464
521.0507139635179,467.9774811243702
528.1729677823432,467.9774811243702
528.1729677823432,458.4796942525725
535.6810717074995,458.4796942525725
535.6810717074995,443.8020742293168
549.5252715949321,443.8020742293168
549.5252715949321,448.00361575212605
561.3016528833253,448.00361575212605
561.3016528833253,458.4796942525725
567.9939594408102,458.4796942525725
567.9939594408102,446.3119909481022
565.3608711065731,446.3119909481022
565.3608711065731,438.4463352733876
556.1359823217974,438.4463352733876
556.1359823217974,441.57723327904637
535.2168445409877,441.57723327904637
535.2168445409877,438.4463352733876
528.1729677823432,438.4463352733876
528.1729677823432,428.0490630025138
534.8771301442769,428.0490630025138
534.8771301442769,426.0053315355904
547.487870376538,426.0053315355904
547.487870376538,437.85408151267904
556.5199279889524,437.85408151267904
556.5199279889524,436.3421445683919
553.9482377008322,436.3421445683919
553.9482377008322,416.51859577563204
555.357361752692,416.51859577563204
555.357361752692,412.2996997155412
553.9482377008322,412.2996997155412
553.9482377008322,395.87884726889564
556.5199279889524,395.87884726889564
556.5199279889524,393.3650948486708
557.4887510678941,393.3650948486708
557.4887510678941,407.5791582825893
574.0883257431448,407.5791582825893
574.0883257431448,413.8820472631734
578.9317169145045,413.8820472631734
578.9317169145045,437.41080317710527
588.4549320727674,437.41080317710527
588.4549320727674,437.85408151267904
597.9777717078125,437.85408151267904
597.9777717078125,442.4126919694807
582.3457326033281,442.4126919694807
582.3457326033281,457.36653614254504
569.3764213442032,457.36653614254504
569.3764213442032,467.7670271838575
555.7787792723701,467.7670271838575
555.7787792723701,472.5064252469624
547.487870376538,472.5064252469624
547.487870376538,483.0787181604369
560.7546496703666,483.0787181604369
560.7546496703666,483.73540097609214
576.285646206165,483.73540097609214
576.285646206165,485.93881027985867
593.8693867661148,485.93881027985867
593.8693867661148,494.3598647937595
575.2952037191104,494.3598647937595
575.2952037191104,502.83408266607177
574.9111507596075,502.83408266607177
574.9111507596075,520.808099141706
572.4509640440989,520.808099141706
572.4509640440989,521.4276588049689
565.5334776713447,521.4276588049689
565.5334776713447,533.0501560433086
587.2926340673769,533.0501560433086
587.2926340673769,540.4878225420329
565.5334776713447,540.4878225420329
565.5334776713447,550.6155227886711
557.7893574037755,550.6155227886711
557.7893574037755,567.4408137409309
558.1894505692976,567.4408137409309
558.1894505692976,580.7423289324098
557.7893574037755,580.7423289324098
557.7893574037755,584.7659260961366
541.3093332272331,584.7659260961366
541.3093332272331,605.238325363151
540.7941153723559,605.238325363151
540.7941153723559,591.6200563374236
523.5433566142826,591.6200563374236
523.5433566142826,584.5371788102977
512.1981832723183,584.5371788102977
512.1981832723183,576.728441726173
508.75195305602136,576.728441726173
508.75195305602136,568.7896931394143
525.5110178065063,568.7896931394143
525.5110178065063,573.1536752770267
546.5836104679779,573.1536752770267
546.5836104679779,568.7896931394143
554.0662861066692,568.7896931394143
554.0662861066692,561.5125091701428
556.155885052343,561.5125091701428
556.155885052343,553.1852281683542
536.2700262285085,553.1852281683542
536.2700262285085,544.1155645879817
545.9497004531761,544.1155645879817
545.9497004531761,535.3561368317196
556.155885052343,535.3561368317196
556.155885052343,531.0359299720727
543.4390595110419,531.0359299720727
543.4390595110419,529.8516638584384
539.6342046217073,529.8516638584384
539.6342046217073,519.2327255966908
527.7020884902581,519.2327255966908
527.7020884902581,495.03312427717367
521.4047518886806,495.03312427717367
521.4047518886806,519.2327255966908
512.3450396735809,519.2327255966908
512.3450396735809,529.8516638584384
508.75195305602136,529.8516638584384
508.75195305602136,521.4276588049689
493.3841213583748,521.4276588049689
493.3841213583748,523.5255997306962
476.2402794250382,523.5255997306962
476.2402794250382,527.5979344434813
462.6430128764229,527.5979344434813
462.6430128764229,529.4813711425606
452.7118453881502,529.4813711425606
452.7118453881502,542.0736570909736
458.52110909888285,542.0736570909736
458.52110909888285,554.980524203589
452.7118453881502,554.980524203589
452.7118453881502,558.6614564310363
443.87412104096825,558.6614564310363
443.87412104096825,571.6543451836242
425.643595384462,571.6543451836242
425.643595384462,573.9658247048678
420.6566738746262,573.9658247048678
420.6566738746262,575.4239813597428
399.7391991252097,575.4239813597428
399.7391991252097,589.9531892426903
397.1575038256428,589.9531892426903
397.1575038256428,594.6262806347594
413.9929070816973,594.6262806347594
413.9929070816973,599.1456757383837
420.6566738746262,599.1456757383837
420.6566738746262,600.723141484184
416.6009426526871,600.723141484184
416.6009426526871,606.79790010993
399.32110766831823,606.79790010993
399.32110766831823,612.0961571904426
382.155297626738,612.0961571904426
382.155297626738,620.5599677050033
375.61030346299464,620.5599677050033
375.61030346299464,626.3272532845988
363.52926555258466,626.3272532845988
363.52926555258466,611.8475071740581
343.6692105384332,611.8475071740581
343.6692105384332,626.3272532845988
342.1778737249534,626.3272532845988
342.1778737249534,626.7262735266413
345.51538996968543,626.7262735266413
345.51538996968543,645.7651397326364
356.7232022831812,645.7651397326364
356.7232022831812,626.7262735266413
370.78429365200356,626.7262735266413
370.78429365200356,633.1850582888032
374.7476461623539,633.1850582888032
374.7476461623539,646.7039746003248
375.61030346299464,646.7039746003248
375.61030346299464,665.2157671469936
384.7303408007317,665.2157671469936
384.7303408007317,683.9057722836149
387.6227815630617,683.9057722836149
387.6227815630617,692.3368854551363
403.43574238928437,692.3368854551363
403.43574238928437,698.4894310331492
400.13349850394235,698.4894310331492
400.13349850394235,714.7111757050784
392.1999535960595,714.7111757050784
392.1999535960595,725.2816178255507
384.7303408007317,725.2816178255507
384.7303408007317,730.3060380109965
375.61030346299464,730.3060380109965
375.61030346299464,749.9537346454591
366.41049426455345,749.9537346454591
366.41049426455345,760.0
359.9570472967022,760.0
359.9570472967022,736.7932015991925
353.56301346653083,736.7932015991925
353.56301346653083,734.4087901044268
350.9340827107769,734.4087901044268
350.9340827107769,727.9521780123109
333.46399157039787,727.9521780123109
333.46399157039787,747.0375286280572
327.9368262655244,747.0375286280572
327.9368262655244,760.0
320.7270755369423,760.0
320.7270755369423,743.1776864103958
305.00764681504904,743.1776864103958
305.00764681504904,760.0
301.78646229858657,760.0
301.78646229858657,749.9537346454591
298.5127581778004,749.9537346454591
298.5127581778004,743.0706354702243
280.79911340756473,743.0706354702243
280.79911340756473,724.1581596501196
283.0769836008117,724.1581596501196
283.0769836008117,719.8977682744573
298.5127581778004,719.8977682744573
298.5127581778004,707.871824984722
287.0094627380381,707.871824984722
287.0094627380381,689.8846920195504
281.396812254932,689.8846920195504
281.396812254932,684.7538914711077
279.7699920290727,684.7538914711077
279.7699920290727,666.4143031429057
265.4106279329369,666.4143031429057
265.4106279329369,678.6161522371125
241.79142456967946,678.6161522371125
241.79142456967946,689.8846920195504
241.60377025310711,689.8846920195504
241.60377025310711,682.4374228556842
232.8538378696389,682.4374228556842
232.8538378696389,683.6918581648806
241.3440423017964,683.6918581648806
241.3440423017964,703.3849394625279
232.8538378696389,703.3849394625279
232.8538378696389,707.5887877708182
225.10349464588833,707.5887877708182
225.10349464588833,706.7000584296245
222.16456947380703,706.7000584296245
222.16456947380703,688.6999699134374
225.10349464588833,688.6999699134374
225.10349464588833,682.4374228556842
215.99525946642623,682.4374228556842
215.99525946642623,676.2036837933567
222.065753221341,676.2036837933567
222.065753221341,670.2372904390447
241.60377025310711,670.2372904390447
241.60377025310711,663.2168838815153
254.69971330590525,663.2168838815153
254.69971330590525,655.5167266535203
270.7394096864426,655.5167266535203
270.7394096864426,644.1082240031758
276.57930536251627,644.1082240031758
276.57930536251627,638.685588268297
294.9989874284662,638.685588268297
294.9989874284662,635.1415342537526
298.5127581778004,635.1415342537526
298.5127581778004,616.8604202551859
284.00613533409717,616.8604202551859
284.00613533409717,613.0735100110467
265.62306678188673,613.0735100110467
265.62306678188673,612.0961571904426
254.32679192750257,612.0961571904426
254.32679192750257,605.4118170897934
255.2590014927048,605.4118170897934
255.2590014927048,604.9931087019012
256.43100945558524,604.9931087019012
256.43100945558524,604.6691931034267
271.66735438081366,604.6691931034267
271.66735438081366,604.9931087019012
280.31948978912135,604.9931087019012
280.31948978912135,598.4356686257952
281.78370846165575,598.4356686257952
281.78370846165575,575.2805046674407
288.0635027643426,575.2805046674407
288.0635027643426,574.5340986258086
301.8091546301789,574.5340986258086
301.8091546301789,565.2885292409647
302.6609217575023,565.2885292409647
302.6609217575023,583.064403573014
304.2251905445042,583.064403573014
304.2251905445042,594.6009328175552
320.35463697410546,594.6009328175552
320.35463697410546,583.1264990193927
335.39171318609544,583.1264990193927
335.39171318609544,565.2885292409647
342.0237750902038,565.2885292409647
342.0237750902038,553.6711552122399
361.09466806206325,553.6711552122399
361.09466806206325,543.8728424738217
376.6037233127049,543.8728424738217
376.6037233127049,534.7202687315676
358.28427912283144,534.7202687315676
358.28427912283144,529.7078116429185
353.4441603680843,529.7078116429185
353.4441603680843,528.8314745679136
339.10834694232454,528.8314745679136
339.10834694232454,519.2994882602054
338.1624307796711,519.2994882602054
338.1624307796711,507.1473155231016
338.12469069627815,507.1473155231016
338.12469069627815,515.9094255880626
334.0597591555019,515.9094255880626
334.0597591555019,531.725363776941
327.39618012418197,531.725363776941
327.39618012418197,508.12474881296663
317.6723014521572,508.12474881296663
317.6723014521572,507.1473155231016
305.12515875914613,507.1473155231016
305.12515875914613,506.8692942264646
286.6791632448604,506.8692942264646
286.6791632448604,492.9256611555654
265.4252733384327,492.9256611555654
265.4252733384327,480.56236390077424
276.25356579412653,480.56236390077424
276.25356579412653,469.41383060952336
286.6791632448604,469.41383060952336
286.6791632448604,464.83470049117545
274.85822880897894,464.83470049117545
274.85822880897894,451.9597796751635
274.27994987659144,451.9597796751635
274.27994987659144,448.550243441867
274.85822880897894,448.550243441867
274.85822880897894,438.4107946831277
268.444184955914,438.4107946831277
268.444184955914,436.86508747232193
267.4655178040475,436.86508747232193
267.4655178040475,420.3386325322022
254.32679192750257,420.3386325322022
254.32679192750257,413.41956359731574
249.84588795370695,413.41956359731574
249.84588795370695,401.3587771175821
257.79997934622304,401.3587771175821
257.79997934622304,400.98993284840174
281.05369132617363,400.98993284840174
281.05369132617363,401.3587771175821
289.4974113485799,401.3587771175821
289.4974113485799,391.70101735498434
286.0754023798337,391.70101735498434
286.0754023798337,396.36474748969437
264.20678096580104,396.36474748969437
264.20678096580104,391.70101735498434
259.59771628237377,391.70101735498434
259.59771628237377,381.7814642633777
249.84588795370695,381.7814642633777
249.84588795370695,373.52826862785156
254.32679192750257,373.52826862785156
254.32679192750257,357.52827041605735
258.278100871795,357.52827041605735
258.278100871795,375.1743746532557
273.57184720317906,375.1743746532557
273.57184720317906,378.9252614915693
290.8106696875423,378.9252614915693
290.8106696875423,369.3331914690066
299.1209180290932,369.3331914690066
299.1209180290932,357.52827041605735
300.30942219047165,357.52827041605735
300.30942219047165,357.8042531580832
305.4938152667176,357.8042531580832
305.4938152667176,382.28227812054206
313.92358728388973,382.28227812054206
313.92358728388973,370.18101560254263
330.86526361059316,370.18101560254263
330.86526361059316,357.8042531580832
340.52519604323703,357.8042531580832
340.52519604323703,357.52827041605735
343.7587460028012,357.52827041605735
343.7587460028012,372.10535750927966
361.7508144159787,372.10535750927966
361.7508144159787,357.52827041605735
369.082556544185,357.52827041605735
369.082556544185,355.0967039343657
358.4332277248792,355.0967039343657
358.4332277248792,351.99914702583374
350.0116635723256,351.99914702583374
350.0116635723256,338.08287350366294
335.14290223118905,338.08287350366294
335.14290223118905,337.376004692252
329.760930296185,337.376004692252
329.760930296185,329.4904731100788
339.2060366251371,329.4904731100788
339.2060366251371,321.84256725553774
355.41595231570415,321.84256725553774
355.41595231570415,304.0003326062787
358.4332277248792,304.0003326062787
358.4332277248792,294.82050660764395
348.4409572444464,294.82050660764395
348.4409572444464,287.3922818355396
338.0582230867204,287.3922818355396
338.0582230867204,269.4891051326424
330.6080838525463,269.4891051326424
330.6080838525463,287.3922818355396
319.4806871538425,287.3922818355396
319.4806871538425,285.0205576609195
310.10070728009873,285.0205576609195
310.10070728009873,283.1074546276307
305.7560645882053,283.1074546276307
305.7560645882053,288.89590362286026
293.34673891614165,288.89590362286026
293.34673891614165,283.1074546276307
289.5187625258228,283.1074546276307
289.5187625258228,281.30000773399007
302.9265239648636,281.30000773399007
302.9265239648636,275.9224347852521
291.16846284488344,275.9224347852521
291.16846284488344,257.336020410581
289.5187625258228,257.336020410581
289.5187625258228,238.02261990925751
278.2729150749772,238.02261990925751
278.2729150749772,241.51195482634512
258.7712165029937,241.51195482634512
258.7712165029937,258.4244744574919
250.1665579586558,258.4244744574919
250.1665579586558,272.3514772144582
239.9168394893063,272.3514772144582
239.9168394893063,283.1074546276307
225.54433208054616,283.1074546276307
225.54433208054616,271.16232929899206
202.02220146910048,271.16232929899206
202.02220146910048,271.037575121408
210.37343548756996,271.037575121408
210.37343548756996,261.83578101452963
213.23578074629876,261.83578101452963
213.23578074629876,245.8148607948843
224.31725632007812,245.8148607948843
224.31725632007812,244.29879309520095
225.54433208054616,244.29879309520095
225.54433208054616,243.36119208951402
227.0406043420319,243.36119208951402
227.0406043420319,234.0371919983155
246.376160713208,234.0371919983155
246.376160713208,217.52755513373768
259.8358516486587,217.52755513373768
259.8358516486587,234.0371919983155
276.0822735606173,234.0371919983155
276.0822735606173,222.4751271749612
280.24768438525285,222.4751271749612
280.24768438525285,206.78069757014126
287.0227401660975,206.78069757014126
287.0227401660975,199.12638099780992
287.5765564431514,199.12638099780992
287.5765564431514,183.96948605624178
302.7537832846569,183.96948605624178
302.7537832846569,163.97778333115025
313.78107622271926,163.97778333115025
313.78107622271926,172.62602939184464
329.22092790893026,172.62602939184464
329.22092790893026,183.96948605624178
344.0384303308315,183.96948605624178
344.0384303308315,183.2415879446318
369.082556544185,183.2415879446318
369.082556544185,181.26676498818222
381.4124054095014,181.26676498818222
381.4124054095014,169.942379538634
392.1236955597509,169.942379538634
392.1236955597509,161.65879334554978
377.517424947885,161.65879334554978
377.517424947885,153.19887217860244
392.1236955597509,153.19887217860244
392.1236955597509,138.88827245461198
381.4124054095014,138.88827245461198
381.4124054095014,138.49759419262284
397.53753332209743,138.49759419262284
397.53753332209743,133.2824886817749
401.94622954571975,133.2824886817749
401.94622954571975,129.48903360441045
411.9563105559129,129.48903360441045
411.9563105559129,129.00562793070168
411.59081917260613,129.00562793070168
411.59081917260613,111.04821494591351
411.9563105559129,111.04821494591351
411.9563105559129,104.2534710192192
401.94622954571975,104.2534710192192
401.94622954571975,88.32393705694409
405.67155398213316,88.32393705694409
405.67155398213316,83.87514031827385
409.03337194367685,83.87514031827385
409.03337194367685,68.44486447411776
405.67155398213316,68.44486447411776
405.67155398213316,62.46814423131519
416.523450754377,62.46814423131519
416.523450754377,45.931818395183655
426.8461548434225,45.931818395183655
426.8461548434225,42.14708082109047
434.0165292803053,42.14708082109047
434.0165292803053,40.00002682308701
439.9193787415412,40.00002682308701
439.9193787415412,43.57766334254114
440.2635189476051,43.57766334254114
440.2635189476051,61.45739666741025
456.1530060410062,61.45739666741025
456.1530060410062,54.19617243489705
459.26314297733586,54.19617243489705
459.26314297733586,40.00002682308701
467.1357458315805,40.00002682308701
467.1357458315805,42.14708082109047
467.51065211842035,42.14708082109047
467.51065211842035,62.46814423131519
469.4203217965746,62.46814423131519
469.4203217965746,67.43926694291468
460.22536757687834,67.43926694291468
460.22536757687834,62.457763696650545
445.3622122609225,62.457763696650545
445.3622122609225,67.43926694291468
433.6608283237493,67.43926694291468
433.6608283237493,74.65864715972566
427.81369041418867,74.65864715972566
427.81369041418867,77.97153981060222
418.6104478606129,77.97153981060222
418.6104478606129,92.80478738456577
407.6020115527036,92.80478738456577
407.6020115527036,95.86784980323034
414.4838232197629,95.86784980323034
414.4838232197629,104.15503028997102
416.8964526020406,104.15503028997102
416.8964526020406,114.45099176128883
424.45493028456167,114.45099176128883
424.45493028456167,124.71658949813559
439.04019841931546,124.71658949813559
439.04019841931546,114.45099176128883
450.4124094329644,114.45099176128883
450.4124094329644,123.1089209563861
469.4203217965746,123.1089209563861
469.4203217965746,133.2824886817749
472.65277200957223,133.2824886817749
472.65277200957223,148.64514352363273
493.6637252171441,148.64514352363273
493.6637252171441,154.69452750908744
471.3870710038406,154.69452750908744
471.3870710038406,143.9967830177672
464.34936355520347,143.9967830177672
464.34936355520347,132.92989920330962
448.1846447662122,132.92989920330962
448.1846447662122,123.26355605287546
447.44961171346324,123.26355605287546
447.44961171346324,132.99062667225184
433.39951781030624,132.99062667225184
433.39951781030624,154.69452750908744
427.8289795737722,154.69452750908744
427.8289795737722,167.58916329403604
429.82255186802684,167.58916329403604
429.82255186802684,173.6457895129777
427.8289795737722,173.6457895129777
427.8289795737722,185.7672766385665
433.89603997355243,185.7672766385665
433.89603997355243,198.553788559864
451.9873269855008,198.553788559864
451.9873269855008,206.10024949941416
458.7508488389403,206.10024949941416
458.7508488389403,226.61763108330848
473.5309867006664,226.61763108330848
473.5309867006664,213.4088164804623
483.1311304724127,213.4088164804623
483.1311304724127,206.10024949941416
486.85902992517697,206.10024949941416
486.85902992517697,198.553788559864
493.6637252171441,198.553788559864
493.6637252171441,215.0222251628273
502.2508414625914,215.0222251628273
502.2508414625914,215.64937575970808
522.0117851703199,215.64937575970808
522.0117851703199,223.1315685828335
525.5076380975457,223.1315685828335
525.5076380975457,225.32596532937188
543.3229155443812,225.32596532937188
543.3229155443812,236.6938846491026
561.5021018123913,236.6938846491026
561.5021018123913,247.92312860910224
573.19506330025,247.92312860910224
573.19506330025,262.53621228506324
551.2713472655428,262.53621228506324
551.2713472655428,262.63704026905344
538.3569160423965,262.63704026905344
538.3569160423965,248.16952548617962
534.4563832017735,248.16952548617962
534.4563832017735,262.63704026905344
522.0117851703199,262.63704026905344
522.0117851703199,268.6484159402453
512.8481334931394,268.6484159402453
512.8481334931394,283.87784050903065
493.6637252171441,283.87784050903065
493.6637252171441,297.4957340115402
506.5266292901851,297.4957340115402
506.5266292901851,311.38896650198785
521.0344323497159,311.38896650198785
521.0344323497159,322.70822874192123
505.28780501761605,322.70822874192123
505.28780501761605,330.45095420896706
493.6637252171441,330.45095420896706
493.6637252171441,355.09911801219465
495.7818102811998,355.09911801219465
495.7818102811998,357.52827041605735
508.89467870188776,357.52827041605735
508.89467870188776,363.9391759679446
503.2674901056338,363.9391759679446
503.2674901056338,361.9525240301331
482.35983260605514,361.9525240301331
482.35983260605514,363.9391759679446
472.29658823745046,363.9391759679446
472.29658823745046,367.23487502006145
469.749146019968,367.23487502006145
469.749146019968,382.24035363557886
480.0939255096051,382.24035363557886
480.0939255096051,405.92068681408335
482.69356545436744,405.92068681408335
482.69356545436744,420.94579992927646
502.4100364838688,420.94579992927646
502.4100364838688,438.17236426288594
508.89467870188776,438.17236426288594
" fill="#C50F1F" stroke="#F9F1A5" stroke-width="0.5"/>

</svg>